<?xml version="1.0" standalone="no"?><!DOCTYPE svg PUBLIC "-//W3C//DTD SVG 1.1//EN" "http://www.w3.org/Graphics/SVG/1.1/DTD/svg11.dtd"><svg t="1664961455023" class="icon" viewBox="0 0 1024 1024" version="1.1" xmlns="http://www.w3.org/2000/svg" p-id="1004" xmlns:xlink="http://www.w3.org/1999/xlink" width="200" height="200"><path d="M488.6 522.2c-126.9 0-230.2-100.5-230.2-224s103.3-224 230.2-224 230.2 100.5 230.2 224-103.3 224-230.2 224z m0-358.4c-77.5 0-140.6 60.3-140.6 134.4s63.1 134.4 140.6 134.4 140.6-60.3 140.6-134.4-63.1-134.4-140.6-134.4zM645.4 723.8h268.8v89.6H645.4zM645.4 858.2h268.8v89.6H645.4z" p-id="1005" fill="#1296db"></path><path d="M197.4 947.8h-89.6V634.2c0-37.1 30.1-67.2 67.2-67.2h627.2c37.1 0 67.2 30.1 67.2 67.2V679h-89.6v-22.4H197.4v291.2z" p-id="1006" fill="#1296db"></path></svg>