<?xml version="1.0" standalone="no"?><!DOCTYPE svg PUBLIC "-//W3C//DTD SVG 1.1//EN" "http://www.w3.org/Graphics/SVG/1.1/DTD/svg11.dtd"><svg t="1664969222039" class="icon" viewBox="0 0 1024 1024" version="1.1" xmlns="http://www.w3.org/2000/svg" p-id="1284" xmlns:xlink="http://www.w3.org/1999/xlink" width="200" height="200"><path d="M512 568.888889c-96.711111 0-170.666667-73.955556-170.666667-170.666667s73.955556-170.666667 170.666667-170.666666 170.666667 73.955556 170.666667 170.666666-73.955556 170.666667-170.666667 170.666667z m0-56.888889c62.577778 0 113.777778-51.2 113.777778-113.777778s-51.2-113.777778-113.777778-113.777778-113.777778 51.2-113.777778 113.777778 51.2 113.777778 113.777778 113.777778z" fill="#ffffff" p-id="1285"></path><path d="M512 967.111111C244.622222 750.933333 113.777778 563.2 113.777778 398.222222c0-244.622222 187.733333-398.222222 398.222222-398.222222s398.222222 153.6 398.222222 398.222222c0 164.977778-130.844444 352.711111-398.222222 568.888889z m341.333333-568.888889c0-199.111111-147.911111-341.333333-341.333333-341.333333S170.666667 199.111111 170.666667 398.222222c0 136.533333 113.777778 301.511111 341.333333 494.933334 227.555556-193.422222 341.333333-358.4 341.333333-494.933334z" fill="#ffffff" p-id="1286"></path></svg>